<?xml version="1.0" encoding="UTF-8" standalone="no"?>
<svg
   xmlns:dc="http://purl.org/dc/elements/1.1/"
   xmlns:cc="http://creativecommons.org/ns#"
   xmlns:rdf="http://www.w3.org/1999/02/22-rdf-syntax-ns#"
   xmlns:svg="http://www.w3.org/2000/svg"
   xmlns="http://www.w3.org/2000/svg"
   xmlns:xlink="http://www.w3.org/1999/xlink"
   xmlns:sodipodi="http://sodipodi.sourceforge.net/DTD/sodipodi-0.dtd"
   xmlns:inkscape="http://www.inkscape.org/namespaces/inkscape"
   version="1.1"
   id="svg4382"
   width="400"
   height="232"
   viewBox="0 0 400 232"
   sodipodi:docname="madbull.svg"
   inkscape:version="1.0.2 (e86c8708, 2021-01-15)">
  <metadata
     id="metadata4388">
    <rdf:RDF>
      <cc:Work
         rdf:about="">
        <dc:format>image/svg+xml</dc:format>
        <dc:type
           rdf:resource="http://purl.org/dc/dcmitype/StillImage" />
        <dc:title></dc:title>
      </cc:Work>
    </rdf:RDF>
  </metadata>
  <defs
     id="defs4386">
    <linearGradient
       inkscape:collect="always"
       id="linearGradient5380">
      <stop
         style="stop-color:#ffffff;stop-opacity:1;"
         offset="0"
         id="stop5376" />
      <stop
         style="stop-color:#b9b9b9;stop-opacity:1"
         offset="1"
         id="stop5378" />
    </linearGradient>
    <linearGradient
       inkscape:collect="always"
       id="linearGradient5372">
      <stop
         style="stop-color:#f2f2f2;stop-opacity:1;"
         offset="0"
         id="stop5368" />
      <stop
         style="stop-color:#bfbfbf;stop-opacity:1"
         offset="1"
         id="stop5370" />
    </linearGradient>
    <linearGradient
       inkscape:collect="always"
       id="linearGradient5342">
      <stop
         style="stop-color:#ffffff;stop-opacity:1;"
         offset="0"
         id="stop5338" />
      <stop
         style="stop-color:#d8d8d8;stop-opacity:1"
         offset="1"
         id="stop5340" />
    </linearGradient>
    <linearGradient
       inkscape:collect="always"
       id="linearGradient5308">
      <stop
         style="stop-color:#e0e0e0;stop-opacity:1"
         offset="0"
         id="stop5304" />
      <stop
         style="stop-color:#002c38;stop-opacity:1"
         offset="1"
         id="stop5306" />
    </linearGradient>
    <linearGradient
       inkscape:collect="always"
       id="linearGradient5294">
      <stop
         style="stop-color:#e9ebeb;stop-opacity:1"
         offset="0"
         id="stop5290" />
      <stop
         style="stop-color:#002c38;stop-opacity:1"
         offset="1"
         id="stop5292" />
    </linearGradient>
    <linearGradient
       inkscape:collect="always"
       id="linearGradient5131">
      <stop
         style="stop-color:#cccccc;stop-opacity:0.72321427"
         offset="0"
         id="stop5127" />
      <stop
         style="stop-color:#cccccc;stop-opacity:0;"
         offset="1"
         id="stop5129" />
    </linearGradient>
    <linearGradient
       inkscape:collect="always"
       id="linearGradient5005">
      <stop
         style="stop-color:#e6e6e6;stop-opacity:1;"
         offset="0"
         id="stop5001" />
      <stop
         style="stop-color:#e6e6e6;stop-opacity:0;"
         offset="1"
         id="stop5003" />
    </linearGradient>
    <filter
       inkscape:collect="always"
       style="color-interpolation-filters:sRGB"
       id="filter4993"
       x="-0.021155738"
       width="1.0423115"
       y="-0.064380378"
       height="1.1287608">
      <feGaussianBlur
         inkscape:collect="always"
         stdDeviation="0.66029617"
         id="feGaussianBlur4995" />
    </filter>
    <linearGradient
       inkscape:collect="always"
       xlink:href="#linearGradient5005"
       id="linearGradient5007"
       x1="155.62689"
       y1="60.545254"
       x2="199.96989"
       y2="84.422256"
       gradientUnits="userSpaceOnUse"
       gradientTransform="matrix(1.2111111,0,0,1.2121212,-36.099753,-11.718851)" />
    <linearGradient
       inkscape:collect="always"
       xlink:href="#linearGradient5005"
       id="linearGradient5011"
       gradientUnits="userSpaceOnUse"
       gradientTransform="matrix(1.1002616,0,0,1.1608719,110.39432,5.9468988)"
       x1="155.62689"
       y1="60.545254"
       x2="199.96989"
       y2="84.422256" />
    <filter
       inkscape:collect="always"
       style="color-interpolation-filters:sRGB"
       id="filter5115"
       x="-0.01376444"
       width="1.0275289"
       y="-0.034057961"
       height="1.0681159">
      <feGaussianBlur
         inkscape:collect="always"
         stdDeviation="0.36555277"
         id="feGaussianBlur5117" />
    </filter>
    <linearGradient
       inkscape:collect="always"
       xlink:href="#linearGradient5131"
       id="linearGradient5133"
       x1="237.06453"
       y1="98.919006"
       x2="182.91489"
       y2="101.47726"
       gradientUnits="userSpaceOnUse" />
    <linearGradient
       inkscape:collect="always"
       xlink:href="#linearGradient5294"
       id="linearGradient5296"
       x1="496.0712"
       y1="16.171484"
       x2="533.659"
       y2="76.92382"
       gradientUnits="userSpaceOnUse"
       gradientTransform="translate(3.4965371,16.171484)" />
    <linearGradient
       inkscape:collect="always"
       xlink:href="#linearGradient5308"
       id="linearGradient5310"
       x1="517.48749"
       y1="87.850494"
       x2="539.77789"
       y2="183.13113"
       gradientUnits="userSpaceOnUse" />
    <linearGradient
       inkscape:collect="always"
       xlink:href="#linearGradient5294"
       id="linearGradient5328"
       gradientUnits="userSpaceOnUse"
       gradientTransform="translate(178.69934,-46.792858)"
       x1="496.0712"
       y1="16.171484"
       x2="533.659"
       y2="76.92382" />
    <linearGradient
       inkscape:collect="always"
       xlink:href="#linearGradient5308"
       id="linearGradient5330"
       gradientUnits="userSpaceOnUse"
       x1="517.48749"
       y1="87.850494"
       x2="539.77789"
       y2="183.13113"
       gradientTransform="translate(174.30597,-2.4724251)" />
    <radialGradient
       inkscape:collect="always"
       xlink:href="#linearGradient5342"
       id="radialGradient5346"
       cx="600.52997"
       cy="258.53326"
       fx="600.52997"
       fy="258.53326"
       r="25.182325"
       gradientTransform="matrix(0.58631439,0.61502988,-0.52608296,0.46708498,298.59329,-243.33667)"
       gradientUnits="userSpaceOnUse" />
    <radialGradient
       inkscape:collect="always"
       xlink:href="#linearGradient5342"
       id="radialGradient5350"
       gradientUnits="userSpaceOnUse"
       gradientTransform="matrix(0.58631439,0.61502988,-0.52608296,0.46708498,317.46157,-172.29446)"
       cx="600.52997"
       cy="258.53326"
       fx="600.52997"
       fy="258.53326"
       r="25.182325" />
    <linearGradient
       inkscape:collect="always"
       xlink:href="#linearGradient5372"
       id="linearGradient5366"
       x1="700.11426"
       y1="163.68867"
       x2="703.07245"
       y2="202.14566"
       gradientUnits="userSpaceOnUse" />
    <linearGradient
       inkscape:collect="always"
       xlink:href="#linearGradient5380"
       id="linearGradient5382"
       x1="723.88269"
       y1="122.35794"
       x2="732.50525"
       y2="123.58973"
       gradientUnits="userSpaceOnUse"
       gradientTransform="translate(5.7483595,-55.841207)" />
    <linearGradient
       inkscape:collect="always"
       xlink:href="#linearGradient5005"
       id="linearGradient5486"
       gradientUnits="userSpaceOnUse"
       gradientTransform="matrix(1.1002616,0,0,1.1608719,98.076407,288.43771)"
       x1="155.62689"
       y1="60.545254"
       x2="199.96989"
       y2="84.422256" />
    <linearGradient
       inkscape:collect="always"
       xlink:href="#linearGradient5005"
       id="linearGradient5488"
       gradientUnits="userSpaceOnUse"
       gradientTransform="matrix(1.2111111,0,0,1.2121212,-48.417666,270.77196)"
       x1="155.62689"
       y1="60.545254"
       x2="199.96989"
       y2="84.422256" />
    <linearGradient
       inkscape:collect="always"
       xlink:href="#linearGradient5131"
       id="linearGradient5490"
       gradientUnits="userSpaceOnUse"
       x1="237.06453"
       y1="98.919006"
       x2="182.91489"
       y2="101.47726"
       gradientTransform="translate(-12.317913,282.49081)" />
  </defs>
  <sodipodi:namedview
     pagecolor="#ffffff"
     bordercolor="#666666"
     borderopacity="1"
     objecttolerance="10"
     gridtolerance="10"
     guidetolerance="10"
     inkscape:pageopacity="0"
     inkscape:pageshadow="2"
     inkscape:window-width="1440"
     inkscape:window-height="900"
     id="namedview4384"
     showgrid="false"
     inkscape:zoom="0.76573938"
     inkscape:cx="351.34731"
     inkscape:cy="293.27569"
     inkscape:window-x="0"
     inkscape:window-y="0"
     inkscape:window-maximized="0"
     inkscape:current-layer="g4390" />
  <g
     inkscape:groupmode="layer"
     inkscape:label="Image"
     id="g4390">
    <path
       style="fill:#5f5f5f;fill-opacity:1;stroke:#0e0e0e;stroke-width:1px;stroke-linecap:butt;stroke-linejoin:miter;stroke-opacity:1"
       d="m 271.2083,156.72551 c -2.93621,7.22864 -9.34093,35.02533 -9.34093,35.02533 l -12.03673,14.93999 c 0,0 1.25346,1.98679 8.34462,4.59891 7.09116,2.61212 11.50334,-0.59776 11.50334,-0.59776 l 1.55909,-12.69903 c 0,0 13.31392,-14.40061 17.19647,-21.49914 3.88256,-7.09852 7.64993,-14.14921 6.737,-19.90592 -0.91293,-5.7567 -4.65163,-9.34615 -8.34492,-11.18728 -3.6933,-1.84113 -7.60174,-2.0716 -10.8037,0.0541 -3.20196,2.12566 -1.87802,4.04221 -4.81424,11.27084 z"
       id="path5213"
       sodipodi:nodetypes="zcczcczzzzzz"
       inkscape:transform-center-x="9.9913379"
       inkscape:transform-center-y="22.944101" />
    <g
       id="g5221"
       transform="rotate(49.384297,306.34398,94.901932)"
       inkscape:transform-center-x="3.634086"
       inkscape:transform-center-y="24.049783">
      <path
         style="fill:#4d4d4d;fill-opacity:1;stroke:#000000;stroke-width:1px;stroke-linecap:butt;stroke-linejoin:miter;stroke-opacity:1"
         d="m 321.95154,66.052559 c -7.11017,-3.735129 -16.2742,-3.288299 -24.05887,-1.312303 -6.47191,1.642774 -13.30681,4.975899 -17.05994,10.49842 -4.24448,6.245503 -3.83956,14.758486 -3.9369,22.309143 -0.076,5.897221 0.57669,11.966641 2.6246,17.497371 3.04841,8.23275 8.19126,15.72476 13.99789,22.30914 6.85355,7.77153 15.93644,13.25073 24.05888,19.68453 4.32073,3.42246 8.02331,7.96938 13.12303,10.06099 4.35057,1.78435 9.43621,2.89101 13.99789,1.74974 2.94342,-0.7364 6.11307,-2.51886 7.43638,-5.24921 3.5664,-7.35844 0.31588,-16.48291 -1.3123,-24.49632 -1.79089,-8.81423 -6.89547,-16.67343 -9.18612,-25.37118 -2.44809,-9.29554 -0.95577,-19.628027 -4.81177,-28.433218 -3.25246,-7.427007 -7.69496,-15.476439 -14.87277,-19.247103 z"
         id="path5215"
         sodipodi:nodetypes="aaaaaaaaaaaaaa" />
      <ellipse
         style="opacity:0.93985;fill:#808080;fill-opacity:1;stroke:#323232;stroke-width:4.12868;stroke-linecap:round;stroke-linejoin:round;stroke-dasharray:24.772, 8.25735;stroke-opacity:1"
         id="ellipse5217"
         cx="307.29752"
         cy="96.672951"
         rx="23.402727"
         ry="26.24605" />
      <ellipse
         style="opacity:0.93985;fill:#767676;fill-opacity:1;stroke:#000000;stroke-width:1.869;stroke-linecap:round;stroke-linejoin:round;stroke-miterlimit:4;stroke-dasharray:7.476, 3.738, 1.869, 3.738;stroke-dashoffset:0;stroke-opacity:1"
         id="ellipse5219"
         cx="306.86005"
         cy="95.579361"
         rx="10.717137"
         ry="10.279703" />
    </g>
    <g
       id="g5204"
       transform="rotate(-14.991531,103.32127,29.769757)"
       inkscape:transform-center-x="8.2633866"
       inkscape:transform-center-y="35.749138"
       style="fill:#333333">
      <path
         style="fill:#333333;fill-opacity:1;stroke:#000000;stroke-width:1px;stroke-linecap:butt;stroke-linejoin:miter;stroke-opacity:1"
         d="m 158.35117,145.66558 c 3.32746,-5.12329 6.19752,-7.15147 10.93585,-8.31125 4.73833,-1.15978 11.23264,-0.27537 15.3102,2.6246 4.07756,2.89997 6.8135,6.067 6.99894,12.68559 0.18544,6.61859 -3.73971,12.06792 -10.93585,22.74658 -7.19614,10.67866 -34.99473,38.49421 -34.99473,38.49421 l 4.81177,13.12302 c 0,0 -14.66335,2.16348 -20.12197,0.87487 -5.45862,-1.28861 -11.81072,-6.56151 -11.81072,-6.56151 l 13.56046,-13.12303 c 0,0 17.02894,-29.57268 20.99684,-40.24394 3.9679,-10.67126 1.92175,-17.18585 5.24921,-22.30914 z"
         id="path5198"
         sodipodi:nodetypes="zzzzzcczcczz" />
      <path
         style="fill:#333333;stroke:#000000;stroke-width:1px;stroke-linecap:butt;stroke-linejoin:miter;stroke-opacity:1"
         d="m 132.10512,208.21866 c 0,0 2.50994,3.41277 4.33489,4.32929 2.77768,1.39499 9.22557,1.35736 9.22557,1.35736 l 4.81177,13.12302 c 0,0 -12.60138,2.80969 -18.72747,1.50869 -4.90341,-1.04134 -13.20522,-7.19533 -13.20522,-7.19533 z"
         id="path5200"
         sodipodi:nodetypes="caccacc" />
      <path
         style="fill:#333333;stroke:none;stroke-width:1px;stroke-linecap:butt;stroke-linejoin:miter;stroke-opacity:1"
         d="m 133.2422,211.6952 -11.72532,10.44619 9.80663,4.90331 5.32969,-13.21762 z"
         id="path5202" />
    </g>
    <path
       style="fill:#273137;stroke:none;stroke-width:1px;stroke-linecap:butt;stroke-linejoin:miter;stroke-opacity:1;fill-opacity:1"
       d="m 123.35643,64.740256 c -8.08382,10.168385 -17.14973,28.213864 -21.8717,38.056774 -4.72197,9.84291 -7.402251,14.15114 -7.873819,20.12197 -0.471568,5.97083 3.403895,9.36108 3.062039,13.99789 -0.341856,4.63681 -4.578103,8.39717 -4.811775,12.68559 -0.233672,4.28842 0.03719,8.60397 3.062039,11.81073 3.024847,3.20676 8.272456,4.14882 13.560456,4.37434 5.288,0.22552 11.05868,-0.76584 17.05994,-3.93691 6.00126,-3.17107 9.03692,-13.80019 17.05993,-15.74763 8.02301,-1.94744 15.35937,5.25472 25.37118,6.99895 10.01181,1.74423 26.69857,3.42301 34.5573,2.6246 7.85873,-0.79841 8.47774,-0.22289 12.24815,-3.49947 3.77041,-3.27658 6.99895,-15.74763 6.99895,-15.74763 0,0 15.40297,-6.9955 24.93375,-7.43638 9.53078,-0.44088 21.8531,2.54113 30.62039,6.12408 8.76729,3.58295 12.29639,12.19484 21.43427,13.99789 9.13788,1.80305 21.78592,-1.33864 29.74553,-5.68664 7.95961,-4.348 13.5361,-9.05533 16.6225,-17.49737 3.0864,-8.44204 2.3587,-17.69544 -1.74974,-29.745524 -4.10844,-12.050082 -16.03651,-31.94824 -26.24605,-38.494206 -10.20954,-6.545966 -16.17073,-4.503448 -25.80862,-4.374342 -9.63789,0.129106 -18.2411,7.663375 -31.05782,6.124078 -12.81672,-1.539297 -27.74052,-14.625977 -41.55625,-19.247103 -13.81573,-4.621126 -28.53252,-9.44392 -40.68138,-8.748683 -12.14886,0.695237 -20.37624,4.475246 -29.74552,10.060986 -9.36928,5.58574 -16.84993,13.015625 -24.93375,23.18401 z"
       id="path4955"
       sodipodi:nodetypes="zzzzzzzzzzzzczzzzzzzzzzzzz" />
    <path
       style="fill:url(#linearGradient5133);fill-opacity:1;stroke:none;stroke-width:1px;stroke-linecap:butt;stroke-linejoin:miter;stroke-opacity:1;opacity:0.36842105"
       d="m 221.77912,136.47946 c 3.42608,-8.15946 7.58957,-16.01934 10.59527,-24.34283 3.11644,-8.63014 5.82078,-17.448905 7.67475,-26.435249 1.15762,-5.611073 2.67119,-11.351199 2.13188,-17.055001 -0.47809,-5.056305 -2.19161,-10.074965 -4.69013,-14.496751 -2.13106,-3.771465 -4.8906,-7.453258 -8.5275,-9.806626 -5.36023,-3.468508 -12.20881,-3.742022 -18.33413,-5.542875 -6.94871,-2.042929 -20.89237,-5.969251 -20.89237,-5.969251 0,0 12.92399,17.71305 14.92312,28.140752 4.68391,24.431814 -0.5379,50.490091 -8.10112,74.189251 -2.12784,6.66754 -10.233,18.33413 -10.233,18.33413 0,0 11.3099,2.75878 17.055,2.55825 3.92859,-0.13712 11.51212,-2.55825 11.51212,-2.55825 0,0 4.51727,-11.37399 6.88611,-17.01555 z"
       id="path5125"
       sodipodi:nodetypes="aaaaaaacaacaca" />
    <path
       style="fill:#cccccc;stroke:none;stroke-width:1px;stroke-linecap:butt;stroke-linejoin:miter;stroke-opacity:1;opacity:0.51879699"
       d="m 160.6956,41.003004 8.44179,1.808956 11.15523,-2.110449 3.31642,-3.617912 -0.60299,-4.220898 -2.41194,-1.507463 h -8.74329 l -8.44179,2.713434 -4.82388,2.713434 z"
       id="path5123" />
    <ellipse
       style="opacity:0.511278;fill:url(#linearGradient5007);fill-opacity:1;stroke:none;stroke-width:2.26451;stroke-linecap:round;stroke-linejoin:round;stroke-miterlimit:4;stroke-dasharray:9.05804, 4.52902, 2.26451, 4.52902;stroke-dashoffset:0;stroke-opacity:1"
       id="path4999"
       cx="180.783"
       cy="85.701378"
       rx="46.474876"
       ry="42.637505" />
    <path
       style="fill:#4d4d4d;stroke:#000000;stroke-width:1px;stroke-linecap:butt;stroke-linejoin:miter;stroke-opacity:1"
       d="m 202.53202,64.740256 c -3.36947,-3.641509 -9.8804,-10.790315 -16.6225,-12.68559 -6.7421,-1.895275 -14.2806,-1.384705 -20.99684,2.18717 -6.71624,3.571875 -13.23049,11.65048 -15.74763,18.809669 -2.51714,7.159189 -0.11182,13.329411 0.43743,20.99684 0.54925,7.667425 1.61812,16.319965 3.06204,24.933745 1.44392,8.61378 4.64652,20.01897 5.68665,26.68349 1.04013,6.66452 -0.97122,9.56976 1.3123,13.12302 2.28352,3.55326 6.02561,4.84796 10.49842,6.12408 4.47281,1.27612 9.32392,3.43568 15.74763,0.43743 6.42371,-2.99825 11.45025,-10.23053 16.6225,-20.99684 5.17225,-10.76631 9.79343,-31.44645 10.06098,-43.74341 0.26755,-12.296959 -2.92337,-22.58346 -5.24921,-28.433223 -2.32584,-5.849763 -1.4423,-3.794872 -4.81177,-7.436381 z"
       id="path4957"
       sodipodi:nodetypes="zzzzzzzzzzzzzz" />
    <ellipse
       style="opacity:0.511278;fill:url(#linearGradient5011);fill-opacity:1;stroke:none;stroke-width:2.11227;stroke-linecap:round;stroke-linejoin:round;stroke-miterlimit:4;stroke-dasharray:8.44908, 4.22454, 2.11227, 4.22454;stroke-dashoffset:0;stroke-opacity:1"
       id="ellipse5009"
       cx="307.42642"
       cy="99.248138"
       rx="42.221169"
       ry="40.834763" />
    <path
       style="fill:#e6e6e6;stroke:none;stroke-width:1px;stroke-linecap:butt;stroke-linejoin:miter;stroke-opacity:1"
       d="M 110.67084,94.485779 C 110.10301,90.058693 106.40983,85.862741 102.35959,83.98736 94.548483,80.37059 85.082833,86.003229 76.550979,84.862228 68.231074,83.749572 60.75465,78.905406 52.4921,77.425847 c -3.049155,-0.546006 -9.279116,-0.507183 -9.279116,-0.507183 0,0 14.592314,11.846235 23.277009,14.942511 8.43295,3.006524 18.447126,-0.44741 26.683484,3.062039 5.049512,2.151558 7.344463,11.762966 12.685593,10.498416 3.87541,-0.91753 5.31843,-6.985667 4.81177,-10.935851 z"
       id="path4965"
       sodipodi:nodetypes="aaaacaaaa" />
    <path
       style="fill:#cccccc;stroke:none;stroke-width:1px;stroke-linecap:butt;stroke-linejoin:miter;stroke-opacity:1"
       d="m 100.48306,102.46314 c -2.925606,3.26125 3.42343,11.46338 0.43743,15.31019 -2.985991,3.84681 -6.425917,2.92104 -13.560453,3.06204 -7.134536,0.141 -18.854996,-2.78149 -28.43322,-5.24921 -9.578224,-2.46772 -28.870655,-9.62355 -28.870655,-9.62355 0,0 -0.249107,4.52003 3.936907,9.18612 4.186014,4.66609 14.974762,10.3796 24.058879,13.56046 9.084117,3.18086 21.103815,4.81809 29.745523,4.81177 8.641708,-0.006 16.370299,-0.45446 21.434269,-3.49947 5.06397,-3.04501 7.47235,-5.6227 8.31125,-10.93585 0.8389,-5.31315 -2.00255,-14.81386 -6.12408,-17.49737 -4.12153,-2.68351 -8.01024,-2.386377 -10.93585,0.87487 z"
       id="path4967"
       sodipodi:nodetypes="zzzzczzzzzzz" />
    <ellipse
       style="opacity:0.93985;fill:#808080;fill-opacity:1;stroke:#323232;stroke-width:4.12868;stroke-linecap:round;stroke-linejoin:round;stroke-dasharray:24.772, 8.25735000000000063;stroke-opacity:1"
       id="path4969"
       cx="179.1293"
       cy="87.0494"
       rx="23.402727"
       ry="26.24605" />
    <ellipse
       style="opacity:0.93985;fill:#767676;fill-opacity:1;stroke:#000000;stroke-width:1.86899996;stroke-linecap:round;stroke-linejoin:round;stroke-dasharray:7.47599983, 3.73799992000000003, 1.86899996000000002, 3.73799992000000003;stroke-opacity:1;stroke-miterlimit:4;stroke-dashoffset:0"
       id="path4971"
       cx="178.69185"
       cy="85.955811"
       rx="10.717137"
       ry="10.279703" />
    <g
       id="g5196">
      <path
         style="fill:#5f5f5f;stroke:#000000;stroke-width:1px;stroke-linecap:butt;stroke-linejoin:miter;stroke-opacity:1;fill-opacity:1"
         d="m 158.35117,145.66558 c 3.32746,-5.12329 6.19752,-7.15147 10.93585,-8.31125 4.73833,-1.15978 11.23264,-0.27537 15.3102,2.6246 4.07756,2.89997 6.8135,6.067 6.99894,12.68559 0.18544,6.61859 -3.73971,12.06792 -10.93585,22.74658 -7.19614,10.67866 -34.99473,38.49421 -34.99473,38.49421 l 4.81177,13.12302 c 0,0 -14.66335,2.16348 -20.12197,0.87487 -5.45862,-1.28861 -11.81072,-6.56151 -11.81072,-6.56151 l 13.56046,-13.12303 c 0,0 17.02894,-29.57268 20.99684,-40.24394 3.9679,-10.67126 1.92175,-17.18585 5.24921,-22.30914 z"
         id="path4959"
         sodipodi:nodetypes="zzzzzcczcczz" />
      <path
         style="fill:#b3b3b3;stroke:#000000;stroke-width:1px;stroke-linecap:butt;stroke-linejoin:miter;stroke-opacity:1"
         d="m 132.10512,208.21866 c 0,0 2.50994,3.41277 4.33489,4.32929 2.77768,1.39499 9.22557,1.35736 9.22557,1.35736 l 4.81177,13.12302 c 0,0 -12.60138,2.80969 -18.72747,1.50869 -4.90341,-1.04134 -13.20522,-7.19533 -13.20522,-7.19533 z"
         id="path5189"
         sodipodi:nodetypes="caccacc" />
      <path
         style="fill:#ffffff;stroke:none;stroke-width:1px;stroke-linecap:butt;stroke-linejoin:miter;stroke-opacity:1"
         d="m 133.2422,211.6952 -11.72532,10.44619 9.80663,4.90331 5.32969,-13.21762 z"
         id="path5191" />
    </g>
    <ellipse
       style="opacity:0.93985;fill:#767676;fill-opacity:1;stroke:#000000;stroke-width:1.34883;stroke-linecap:round;stroke-linejoin:round;stroke-miterlimit:4;stroke-dasharray:5.39533, 2.69767, 1.34883, 2.69767;stroke-dashoffset:0;stroke-opacity:1"
       id="ellipse4973"
       cx="176.50758"
       cy="150.48293"
       rx="7.9120007"
       ry="7.2522154" />
    <path
       style="fill:#ffffff;stroke:none;stroke-width:1px;stroke-linecap:butt;stroke-linejoin:miter;stroke-opacity:1;filter:url(#filter4993)"
       d="m 34.233696,109.07564 c 0,0 14.4719,6.52833 23.373352,9.20768 8.901452,2.67935 19.054627,4.56128 26.478172,4.70511 7.423545,0.14383 6.631981,2.07621 9.68682,0.14322 3.05484,-1.93299 7.99162,-4.03733 7.99162,-4.03733 0.47915,-3.20262 1.36969,-10.98717 1.64571,-13.324 0.27602,-2.33683 0.70828,-2.83314 1.65266,-3.30533 0.94438,-0.47219 1.20735,-0.95583 2.59704,0.47219 1.38969,1.42802 1.62196,5.94268 1.41657,9.20769 -0.20539,3.26501 -0.40534,7.31076 -2.83313,9.91596 -2.42779,2.6052 -5.63401,2.90767 -10.38816,3.77752 -4.754145,0.86985 -11.693753,1.06429 -17.943179,0.23609 -6.249426,-0.8282 -12.984981,-3.53657 -19.123651,-5.43017 -6.13867,-1.8936 -13.691685,-3.6745 -17.707084,-5.90236 -4.015399,-2.22786 -6.84674,-5.66627 -6.84674,-5.66627 z"
       id="path4983"
       sodipodi:nodetypes="czzzszzzzzzzzzc" />
    <path
       style="fill:#999999;stroke:none;stroke-width:1px;stroke-linecap:butt;stroke-linejoin:miter;stroke-opacity:1;filter:url(#filter4993)"
       d="m 35.402304,116.58812 c 0,0 20.648828,7.52999 29.55028,10.20934 8.901452,2.67935 19.054627,4.56128 26.478172,4.70511 9.967654,1.90551 7.577908,-0.49122 16.175944,-2.39161 0.47915,-3.20262 6.04413,-5.14413 6.32015,-7.48096 -0.41798,-2.56606 -2.489,-19.63895 0.24304,-17.35727 1.38969,1.42802 3.95918,10.45017 3.75379,13.71518 -0.20539,3.26501 -1.90784,9.98186 -4.33563,12.58706 -2.42779,2.6052 -5.63401,2.90767 -10.38816,3.77752 -4.754149,0.86985 -11.693757,1.06429 -17.943183,0.23609 -6.249426,-0.8282 -12.984981,-2.03407 -19.123651,-3.92767 -6.13867,-1.8936 -13.691685,-4.00839 -17.707084,-6.23625 -4.015399,-2.22786 -13.023668,-7.83654 -13.023668,-7.83654 z"
       id="path4997"
       sodipodi:nodetypes="czcccczzzzzzc" />
    <path
       style="fill:#ffffff;stroke:none;stroke-width:1px;stroke-linecap:butt;stroke-linejoin:miter;stroke-opacity:1;filter:url(#filter5115)"
       d="m 106.59376,99.345382 c 0.87553,-1.946579 0.0553,-3.620941 -1.49232,-5.756063 -1.54766,-2.135122 -4.73172,-4.246951 -8.314309,-5.329688 -3.582589,-1.082737 -8.12254,0.193604 -12.578063,-0.213188 -4.455523,-0.406792 -9.561851,-1.014239 -14.070376,-2.345062 -4.508525,-1.330823 -9.002518,-4.193417 -12.791251,-5.542876 -3.788733,-1.349459 -7.427019,-2.309797 -9.806625,-2.771437 -2.379606,-0.46164 -4.327832,-0.468404 -4.327832,-0.468404 0,0 7.372445,3.233378 11.149832,4.945341 3.777387,1.711963 7.340261,3.883628 11.512126,5.329688 4.171865,1.44606 8.682699,2.571486 13.430813,3.197813 4.748114,0.626327 11.484982,-1.251482 14.923126,0.426375 3.438144,1.677857 4.133623,4.139021 5.116501,6.182438 0.982878,2.043417 -0.732106,4.566881 1.137678,5.462821 1.86978,0.89594 5.23517,-1.17118 6.1107,-3.117758 z"
       id="path5013"
       sodipodi:nodetypes="zzzzzzzczzzzzzz" />
    <path
       style="fill:#000000;stroke:none;stroke-width:1px;stroke-linecap:butt;stroke-linejoin:miter;stroke-opacity:1"
       d="m 177.57918,35.274643 c -3.63139,6.384023 -14.62741,2.868634 -21.10448,6.331346 -7.93202,4.240544 -15.28526,10.082009 -20.803,17.185082 -4.77114,6.141961 -7.09729,13.868896 -9.94925,21.104488 -2.05119,5.204005 -2.53337,11.022244 -5.12538,15.979111 -1.63347,3.123782 -6.42718,8.39806 -6.42718,8.39806 0,0 -3.54794,0.4892 -5.33103,0.64672 -1.80472,0.15943 -3.84199,-0.57634 -5.42687,0.30149 -1.82936,1.01324 -3.617915,5.12538 -3.617915,5.12538 l -2.411941,-9.94926 c 0,0 1.931602,-3.73015 3.617916,-4.823882 1.90225,-1.233784 4.3676,-1.409913 6.63283,-1.507464 1.02134,-0.04398 3.03796,0.420065 3.03796,0.420065 0,0 4.53518,-5.074124 6.30832,-7.957382 3.01506,-4.902714 4.49471,-10.616639 7.23582,-15.677619 2.88167,-5.320492 5.68103,-10.807037 9.64777,-15.376126 3.88045,-4.469694 8.57736,-8.272719 13.56717,-11.456722 5.23068,-3.337704 11.04521,-5.737947 16.88359,-7.838809 4.10555,-1.477327 8.90875,-5.540367 12.66269,-3.31642 0.713,0.422399 1.01273,1.691602 0.60298,2.411942 z"
       id="path5121"
       sodipodi:nodetypes="aaaaacaaccaacaaaaaaa" />
    <g
       id="g5264"
       transform="translate(-3.0905314,2.4724251)">
      <path
         style="fill:#5f5f5f;fill-opacity:1;stroke:#0e0e0e;stroke-width:1px;stroke-linecap:butt;stroke-linejoin:miter;stroke-opacity:1"
         d="m 330.70023,167.09985 c -0.13926,7.80097 0,34.5573 0,34.5573 l -10.93586,20.55941 c 0,0 4.03831,3.55345 8.31125,4.37434 4.27294,0.82089 16.6225,-1.74974 16.6225,-1.74974 l 0.87487,-19.2471 c 0,0 7.2422,-18.22605 8.31125,-26.24605 1.06905,-8.02 2.04783,-15.95393 -0.87487,-20.99684 -2.9227,-5.04291 -7.70235,-7.04711 -11.81072,-7.43638 -4.10837,-0.38927 -7.83806,0.80169 -10.06099,3.9369 -2.22293,3.13521 -0.29817,4.44719 -0.43743,12.24816 z"
         id="path4963"
         sodipodi:nodetypes="zcczcczzzzz" />
      <path
         style="fill:#b3b3b3;fill-opacity:1;stroke:#000000;stroke-width:1px;stroke-linecap:butt;stroke-linejoin:miter;stroke-opacity:1"
         d="m 330.70023,201.65715 -10.93586,20.55941 c 0,0 5.33031,4.52992 9.68628,5.24655 4.35597,0.71663 15.24747,-2.62195 15.24747,-2.62195 l 0.87487,-19.2471 c 0,0 -7.29571,1.79709 -9.94128,0.85344 -2.64557,-0.94365 -4.93148,-4.79035 -4.93148,-4.79035 z"
         id="path5223"
         sodipodi:nodetypes="cczcczc" />
      <path
         style="fill:#ffffff;stroke:none;stroke-width:1px;stroke-linecap:butt;stroke-linejoin:miter;stroke-opacity:1"
         d="m 332.54118,205.52034 -9.58065,18.54319 7.72633,3.39958 6.18106,-1.54526 0.30906,-18.54319 z"
         id="path5225" />
    </g>
    <path
       style="fill:#cccccc;stroke:#000000;stroke-width:1px;stroke-linecap:butt;stroke-linejoin:miter;stroke-opacity:1"
       d="m 261.86737,191.75084 c 0,0 1.80753,3.7049 3.44111,4.80696 1.68574,1.13724 5.92921,1.43515 5.92921,1.43515 l -1.55909,12.69903 c 0,0 -4.23084,2.27753 -6.5335,2.24563 -3.5204,-0.0488 -6.79707,-2.02601 -9.8897,-3.70863 -1.24815,-0.67908 -3.42476,-2.53815 -3.42476,-2.53815 z"
       id="path5227"
       sodipodi:nodetypes="caccaacc" />
    <path
       style="fill:#cccccc;fill-opacity:1;stroke:#000000;stroke-width:0.999528px;stroke-linecap:butt;stroke-linejoin:miter;stroke-opacity:1"
       d="m 177.27676,194.69929 c 0,0 3.18283,3.73699 5.83853,4.24105 2.6557,0.50406 8.71763,-2.25572 8.71763,-2.25572 l 8.03501,11.43167 c 0,0 -11.2328,7.0191 -16.96981,7.35781 -5.73702,0.33871 -15.31649,-4.59067 -15.31649,-4.59067 z"
       id="path5229"
       sodipodi:nodetypes="czcczcc" />
    <g
       id="g5259"
       transform="translate(-3.0905314,2.4724251)">
      <g
         id="g5209">
        <path
           style="fill:#4d4d4d;fill-opacity:1;stroke:#000000;stroke-width:1px;stroke-linecap:butt;stroke-linejoin:miter;stroke-opacity:1"
           d="m 321.95154,66.052559 c -7.11017,-3.735129 -16.2742,-3.288299 -24.05887,-1.312303 -6.47191,1.642774 -13.30681,4.975899 -17.05994,10.49842 -4.24448,6.245503 -3.83956,14.758486 -3.9369,22.309143 -0.076,5.897221 0.57669,11.966641 2.6246,17.497371 3.04841,8.23275 8.19126,15.72476 13.99789,22.30914 6.85355,7.77153 15.93644,13.25073 24.05888,19.68453 4.32073,3.42246 8.02331,7.96938 13.12303,10.06099 4.35057,1.78435 9.43621,2.89101 13.99789,1.74974 2.94342,-0.7364 6.11307,-2.51886 7.43638,-5.24921 3.5664,-7.35844 0.31588,-16.48291 -1.3123,-24.49632 -1.79089,-8.81423 -6.89547,-16.67343 -9.18612,-25.37118 -2.44809,-9.29554 -0.95577,-19.628027 -4.81177,-28.433218 -3.25246,-7.427007 -7.69496,-15.476439 -14.87277,-19.247103 z"
           id="path4961"
           sodipodi:nodetypes="aaaaaaaaaaaaaa" />
        <ellipse
           style="opacity:0.93985;fill:#808080;fill-opacity:1;stroke:#323232;stroke-width:4.12868;stroke-linecap:round;stroke-linejoin:round;stroke-dasharray:24.772, 8.25735;stroke-opacity:1"
           id="ellipse4975"
           cx="307.29752"
           cy="96.672951"
           rx="23.402727"
           ry="26.24605" />
        <ellipse
           style="opacity:0.93985;fill:#767676;fill-opacity:1;stroke:#000000;stroke-width:1.869;stroke-linecap:round;stroke-linejoin:round;stroke-miterlimit:4;stroke-dasharray:7.476, 3.738, 1.869, 3.738;stroke-dashoffset:0;stroke-opacity:1"
           id="ellipse4977"
           cx="306.86005"
           cy="95.579361"
           rx="10.717137"
           ry="10.279703" />
      </g>
      <ellipse
         style="opacity:1;fill:#333333;fill-opacity:1;stroke:none;stroke-width:2.70354;stroke-linecap:round;stroke-linejoin:round;stroke-miterlimit:4;stroke-dasharray:10.8142, 5.40708, 2.70354, 5.40708;stroke-dashoffset:0;stroke-opacity:1"
         id="path5231"
         cx="305.61917"
         cy="78.999886"
         rx="4.479938"
         ry="4.042871" />
      <ellipse
         style="opacity:1;fill:#333333;fill-opacity:1;stroke:none;stroke-width:2.70354;stroke-linecap:round;stroke-linejoin:round;stroke-miterlimit:4;stroke-dasharray:10.8142, 5.40708, 2.70354, 5.40708;stroke-dashoffset:0;stroke-opacity:1"
         id="ellipse5233"
         cx="308.24158"
         cy="112.21699"
         rx="4.479938"
         ry="4.042871" />
      <ellipse
         style="opacity:1;fill:#333333;fill-opacity:1;stroke:none;stroke-width:2.70354;stroke-linecap:round;stroke-linejoin:round;stroke-miterlimit:4;stroke-dasharray:10.8142, 5.40708, 2.70354, 5.40708;stroke-dashoffset:0;stroke-opacity:1"
         id="ellipse5235"
         cx="323.10187"
         cy="93.204567"
         rx="4.479938"
         ry="4.042871" />
      <ellipse
         style="opacity:1;fill:#333333;fill-opacity:1;stroke:none;stroke-width:2.70354;stroke-linecap:round;stroke-linejoin:round;stroke-miterlimit:4;stroke-dasharray:10.8142, 5.40708, 2.70354, 5.40708;stroke-dashoffset:0;stroke-opacity:1"
         id="ellipse5237"
         cx="290.75891"
         cy="98.012306"
         rx="4.479938"
         ry="4.042871" />
      <ellipse
         style="opacity:1;fill:#333333;fill-opacity:1;stroke:none;stroke-width:2.70354;stroke-linecap:round;stroke-linejoin:round;stroke-miterlimit:4;stroke-dasharray:10.8142, 5.40708, 2.70354, 5.40708;stroke-dashoffset:0;stroke-opacity:1"
         id="ellipse5239"
         cx="294.25546"
         cy="85.337357"
         rx="4.479938"
         ry="4.042871" />
      <ellipse
         style="opacity:1;fill:#333333;fill-opacity:1;stroke:none;stroke-width:2.70354;stroke-linecap:round;stroke-linejoin:round;stroke-miterlimit:4;stroke-dasharray:10.8142, 5.40708, 2.70354, 5.40708;stroke-dashoffset:0;stroke-opacity:1"
         id="ellipse5241"
         cx="317.42001"
         cy="82.059357"
         rx="4.479938"
         ry="4.042871" />
      <ellipse
         style="opacity:1;fill:#333333;fill-opacity:1;stroke:none;stroke-width:2.70354;stroke-linecap:round;stroke-linejoin:round;stroke-miterlimit:4;stroke-dasharray:10.8142, 5.40708, 2.70354, 5.40708;stroke-dashoffset:0;stroke-opacity:1"
         id="ellipse5243"
         cx="319.60535"
         cy="106.53512"
         rx="4.479938"
         ry="4.042871" />
      <ellipse
         style="opacity:1;fill:#333333;fill-opacity:1;stroke:none;stroke-width:2.70354;stroke-linecap:round;stroke-linejoin:round;stroke-miterlimit:4;stroke-dasharray:10.8142, 5.40708, 2.70354, 5.40708;stroke-dashoffset:0;stroke-opacity:1"
         id="ellipse5245"
         cx="296.65933"
         cy="108.06485"
         rx="4.479938"
         ry="4.042871" />
    </g>
    <path
       style="fill:#333333;stroke:none;stroke-width:1px;stroke-linecap:butt;stroke-linejoin:miter;stroke-opacity:1"
       d="m 342.43088,100.75132 c 6.07775,-1.399749 0.56541,-16.009969 -0.6181,-24.724247 -1.18351,-8.714278 -3.9539,-21.848147 -6.79917,-27.196676 -2.84527,-5.348529 -3.51822,-6.240452 -5.56296,-6.181063 -2.04474,0.05939 -1.79686,-1.769909 -2.47243,3.090531 -0.67557,4.86044 8.33417,16.071952 9.88971,23.488039 1.55554,7.416087 -0.89599,14.665447 0.29944,19.977399 1.19543,5.311952 -0.81424,12.945767 5.26351,11.546017 z"
       id="path5268"
       sodipodi:nodetypes="zzzzzzzz" />
    <ellipse
       style="opacity:0.93985;fill:#767676;fill-opacity:1;stroke:#000000;stroke-width:1.34883;stroke-linecap:round;stroke-linejoin:round;stroke-miterlimit:4;stroke-dasharray:5.39533, 2.69767, 1.34883, 2.69767;stroke-dashoffset:0;stroke-opacity:1"
       id="ellipse5270"
       cx="337.21521"
       cy="158.51831"
       rx="7.9120007"
       ry="7.2522154" />
    <ellipse
       style="opacity:0.93985;fill:#767676;fill-opacity:1;stroke:#000000;stroke-width:1.34883;stroke-linecap:round;stroke-linejoin:round;stroke-miterlimit:4;stroke-dasharray:5.39533, 2.69767, 1.34883, 2.69767;stroke-dashoffset:0;stroke-opacity:1"
       id="ellipse5272"
       cx="337.21521"
       cy="158.51831"
       rx="7.9120007"
       ry="7.2522154" />
    <ellipse
       style="opacity:0.93985;fill:#767676;fill-opacity:1;stroke:#000000;stroke-width:1.34883;stroke-linecap:round;stroke-linejoin:round;stroke-miterlimit:4;stroke-dasharray:5.39533, 2.69767, 1.34883, 2.69767;stroke-dashoffset:0;stroke-opacity:1"
       id="ellipse5274"
       cx="282.20377"
       cy="162.84505"
       rx="7.9120007"
       ry="7.2522154" />
    <path
       style="fill:url(#linearGradient5310);stroke:none;stroke-width:1px;stroke-linecap:butt;stroke-linejoin:miter;stroke-opacity:1;fill-opacity:1"
       d="m 475.52905,124.12707 c -32.92572,15.9094 1.41637,71.90249 21.85336,87.41343 20.43699,15.51094 45.00641,14.8505 63.8118,-1.74827 18.80539,-16.59877 46.03773,-66.66655 13.11201,-85.66516 -32.92572,-18.99861 -65.85145,-15.9094 -98.77717,0 z"
       id="path5276"
       sodipodi:nodetypes="zzzzz"
       inkscape:export-filename="/Users/jh/code/my/games/LD49/Components/Player/assets/body_front.png"
       inkscape:export-xdpi="100.0441"
       inkscape:export-ydpi="100.0441" />
    <path
       style="fill:#999999;stroke:none;stroke-width:1px;stroke-linecap:butt;stroke-linejoin:miter;stroke-opacity:1"
       d="m 493.4488,197.11729 c 0,0 15.23611,5.15886 23.16456,6.11893 8.38993,1.01596 17.02384,1.01205 25.3499,-0.43707 8.03391,-1.39827 15.65975,-4.6771 23.16455,-7.8672 4.6774,-1.98824 13.54909,-6.99308 13.54909,-6.99308 0,0 -10.39119,17.20684 -17.91976,23.60163 -6.40763,5.44266 -14.07276,10.0259 -22.29042,11.80081 -9.27386,2.00303 -19.51032,1.54164 -28.40937,-1.74827 -8.39034,-3.10185 -15.23709,-9.70334 -21.41629,-16.17148 -4.27089,-4.4706 -10.4896,-15.29735 -10.4896,-15.29735 z"
       id="path5302"
       sodipodi:nodetypes="caaacaaaacc"
       inkscape:export-filename="/Users/jh/code/my/games/LD49/Components/Player/assets/body_front.png"
       inkscape:export-xdpi="100.0441"
       inkscape:export-ydpi="100.0441" />
    <g
       id="g5356"
       transform="translate(-1.6423884,-50.771675)"
       inkscape:export-filename="/Users/jh/code/my/games/LD49/Components/Player/assets/head_front.png"
       inkscape:export-xdpi="100.0441"
       inkscape:export-ydpi="100.0441">
      <path
         style="fill:url(#linearGradient5296);fill-opacity:1;stroke:none;stroke-width:0.948931px;stroke-linecap:butt;stroke-linejoin:miter;stroke-opacity:1"
         d="m 523.18386,41.495752 c -5.11113,-0.0203 -11.21355,0.157441 -18.531,3.784822 -7.31745,3.62738 -15.17043,7.697529 -19.84774,16.562073 -4.6773,8.864544 -4.14121,24.80482 -3.6455,33.973485 0.49572,9.168668 1.35937,15.550858 4.45561,20.384088 3.09624,4.83323 4.90338,5.72505 10.93652,8.0687 6.03313,2.34366 13.98061,1.97747 22.49106,2.54801 8.51046,0.57055 20.2183,2.33507 28.54599,0.84934 8.32769,-1.48574 17.37524,-0.82476 23.08818,-9.34271 5.71294,-8.51794 3.35683,-25.364647 0.81012,-36.52149 -2.54672,-11.156843 -7.90724,-21.707072 -14.58202,-28.452794 -6.67478,-6.745723 -6.69082,-7.380815 -11.13286,-9.280716 -6.96758,-2.980097 -17.47724,-2.552511 -22.58836,-2.572808 z"
         id="path5284"
         sodipodi:nodetypes="zzzzzzzzzzzaz" />
      <path
         style="fill:#d5f6ff;stroke:none;stroke-width:1px;stroke-linecap:butt;stroke-linejoin:miter;stroke-opacity:1"
         d="m 495.63415,84.353958 c 0.66361,-4.233143 3.9336,-12.23788 3.9336,-12.23788 0,0 15.65307,3.275762 23.60162,3.933604 4.21059,0.348479 8.48162,0.516222 12.67495,0 7.75048,-0.954127 22.72749,-5.681872 22.72749,-5.681872 0,0 3.92916,8.838043 4.80774,13.549081 0.96191,5.157901 1.7276,10.648775 0.43707,15.734418 -0.78672,3.100271 -2.40391,6.194261 -4.80775,8.304271 -4.27018,3.74823 -15.73441,6.55601 -15.73441,6.55601 l -5.68187,-8.74134 h -15.73442 l -7.43014,6.99307 c 0,0 -10.6128,0.83554 -14.42322,-2.18533 -3.07397,-2.43702 -3.62884,-7.07467 -4.37067,-10.926682 -0.96428,-5.007111 -0.78971,-10.259758 10e-6,-15.29735 z"
         id="path5282"
         sodipodi:nodetypes="acaacaaaccccaaa" />
      <path
         style="fill:#f9f9f9;stroke:none;stroke-width:1px;stroke-linecap:butt;stroke-linejoin:miter;stroke-opacity:1"
         d="m 498.69361,90.909966 17.48268,-13.549082 -8.30427,10.052544 13.98615,-10.052544 -23.16456,24.038696 6.11894,-10.926682 -6.99308,6.556008 z"
         id="path5298" />
      <path
         style="fill:#f9f9f9;stroke:none;stroke-width:1px;stroke-linecap:butt;stroke-linejoin:miter;stroke-opacity:1"
         d="m 537.59259,95.280639 17.48268,-13.549082 -8.30427,10.052544 13.98615,-10.052544 -23.16456,24.038693 6.11894,-10.926679 -6.99308,6.556009 z"
         id="path5300" />
    </g>
    <path
       style="fill:url(#linearGradient5330);fill-opacity:1;stroke:none;stroke-width:1px;stroke-linecap:butt;stroke-linejoin:miter;stroke-opacity:1"
       d="m 649.83502,121.65464 c -32.92572,15.9094 1.41637,71.90249 21.85336,87.41343 20.43699,15.51094 45.00641,14.8505 63.8118,-1.74827 18.80539,-16.59877 46.03773,-66.66655 13.11201,-85.66516 -32.92572,-18.99861 -65.85145,-15.9094 -98.77717,0 z"
       id="path5314"
       sodipodi:nodetypes="zzzzz"
       inkscape:export-filename="/Users/jh/code/my/games/LD49/Components/Player/assets/body_back.png"
       inkscape:export-xdpi="100.0441"
       inkscape:export-ydpi="100.0441" />
    <path
       style="fill:#999999;stroke:none;stroke-width:1px;stroke-linecap:butt;stroke-linejoin:miter;stroke-opacity:1"
       d="m 667.75477,194.64486 c 0,0 15.23611,5.15886 23.16456,6.11893 8.38993,1.01596 17.02384,1.01205 25.3499,-0.43707 8.03391,-1.39827 15.65975,-4.6771 23.16455,-7.8672 4.6774,-1.98824 13.54909,-6.99308 13.54909,-6.99308 0,0 -10.39119,17.20684 -17.91976,23.60163 -6.40763,5.44266 -14.07276,10.0259 -22.29042,11.80081 -9.27386,2.00303 -19.51032,1.54164 -28.40937,-1.74827 -8.39034,-3.10185 -15.23709,-9.70334 -21.41629,-16.17148 -4.27089,-4.4706 -10.4896,-15.29735 -10.4896,-15.29735 z"
       id="path5316"
       sodipodi:nodetypes="caaacaaaacc"
       inkscape:export-filename="/Users/jh/code/my/games/LD49/Components/Player/assets/body_back.png"
       inkscape:export-xdpi="100.0441"
       inkscape:export-ydpi="100.0441" />
    <path
       style="fill:url(#linearGradient5328);fill-opacity:1;stroke:none;stroke-width:0.948931px;stroke-linecap:butt;stroke-linejoin:miter;stroke-opacity:1"
       d="m 698.38666,-21.46859 c -5.11113,-0.0203 -11.21355,0.157441 -18.531,3.784822 -7.31745,3.62738 -15.17043,7.6975295 -19.84774,16.5620735 -4.6773,8.864544 -4.14121,24.8048195 -3.6455,33.9734845 0.49572,9.168663 1.35937,15.550853 4.45561,20.384083 3.09624,4.83323 7.52578,7.47332 13.55892,9.81697 6.03313,2.34366 9.60994,4.59987 18.12039,5.17041 8.51046,0.57055 21.09244,0.5868 29.42013,-0.89893 8.32769,-1.48574 18.24937,-3.44716 23.96231,-11.96511 5.71294,-8.51794 3.35683,-25.364642 0.81012,-36.521485 -2.54672,-11.1568425 -7.90724,-21.7070715 -14.58202,-28.4527935 -6.67478,-6.7457235 -6.69082,-7.3808155 -11.13286,-9.2807165 -6.96758,-2.980097 -17.47724,-2.552511 -22.58836,-2.572808 z"
       id="path5320"
       sodipodi:nodetypes="zzzzzzzzzzzaz"
       inkscape:export-filename="/Users/jh/code/my/games/LD49/Components/Player/assets/head_back.png"
       inkscape:export-xdpi="100.0441"
       inkscape:export-ydpi="100.0441" />
    <path
       style="fill:#ffffff;stroke:none;stroke-width:1px;stroke-linecap:butt;stroke-linejoin:miter;stroke-opacity:1"
       d="m 674.35395,135.36528 -6.79917,9.27159 c 0,0 19.71002,8.83975 30.90532,9.2716 11.1953,0.43185 35.23205,-7.41728 35.23205,-7.41728 l -4.94485,-10.50781 c 0,0 -20.55627,2.66024 -29.6691,2.47243 -9.11283,-0.18781 -24.72425,-3.09053 -24.72425,-3.09053 z"
       id="path5332"
       sodipodi:nodetypes="cczcczc"
       inkscape:export-filename="/Users/jh/code/my/games/LD49/Components/Player/assets/body_back.png"
       inkscape:export-xdpi="100.0441"
       inkscape:export-ydpi="100.0441" />
    <path
       style="fill:url(#linearGradient5366);stroke:none;stroke-width:1.07729000000000008px;stroke-linecap:butt;stroke-linejoin:miter;stroke-opacity:1;fill-opacity:1"
       d="m 667.55478,144.63687 0.19999,58.03706 c 0,0 15.13076,7.52004 25.14237,8.67619 10.01161,1.15614 27.0913,-1.17544 33.99584,-3.58673 6.90454,-2.4113 8.03539,-5.02143 8.03539,-5.02143 l -1.23622,-55.95305 c 0,0 -24.03675,6.23996 -35.23205,5.73878 -11.1953,-0.50119 -30.90532,-7.89082 -30.90532,-7.89082 z"
       id="path5334"
       sodipodi:nodetypes="cczzcczc"
       inkscape:export-filename="/Users/jh/code/my/games/LD49/Components/Player/assets/body_back.png"
       inkscape:export-xdpi="100.0441"
       inkscape:export-ydpi="100.0441" />
    <path
       style="fill:url(#radialGradient5346);fill-opacity:1;stroke:none;stroke-width:0.721435px;stroke-linecap:butt;stroke-linejoin:miter;stroke-opacity:1"
       d="m 528.80553,237.47147 c -6.81518,-3.74512 -16.06987,-2.92639 -21.18423,3.09758 -5.11437,6.02397 -6.28049,20.41722 1.28388,26.01966 7.56438,5.60244 25.1835,1.74849 29.52954,-6.19516 4.34604,-7.94365 -2.81402,-19.17696 -9.62919,-22.92208 z"
       id="path5336"
       sodipodi:nodetypes="zzzzz"
       inkscape:export-filename="/Users/jh/code/my/games/LD49/Components/Player/assets/hand.png"
       inkscape:export-xdpi="100.0441"
       inkscape:export-ydpi="100.0441" />
    <path
       style="fill:url(#radialGradient5350);fill-opacity:1;stroke:none;stroke-width:0.721435px;stroke-linecap:butt;stroke-linejoin:miter;stroke-opacity:1"
       d="m 547.67381,308.51368 c -6.81518,-3.74512 -16.06987,-2.92639 -21.18423,3.09758 -5.11437,6.02397 -6.28049,20.41722 1.28388,26.01966 7.56438,5.60244 25.1835,1.74849 29.52954,-6.19516 4.34604,-7.94365 -2.81402,-19.17696 -9.62919,-22.92208 z"
       id="path5348"
       sodipodi:nodetypes="zzzzz" />
    <path
       style="fill:url(#linearGradient5382);fill-opacity:1;stroke:none;stroke-width:1px;stroke-linecap:butt;stroke-linejoin:miter;stroke-opacity:1"
       d="m 715.72335,86.153793 c -4.91452,-6.12329 12.78917,-15.57364 13.80507,-23.66583 1.0159,-8.09219 -7.38559,-15.81902 -5.91646,-20.707608 1.46913,-4.888588 3.93975,-5.551724 6.90254,-5.916459 2.96279,-0.364735 4.72091,-0.313185 7.88861,3.944306 3.1677,4.257491 4.81115,15.676251 3.94431,22.679761 -0.86684,7.00351 -3.00889,13.31049 -7.85176,17.65421 -4.84287,4.34372 -13.85779,12.13491 -18.77231,6.01162 z"
       id="path5374"
       sodipodi:nodetypes="zzzzzzzz"
       inkscape:export-filename="/Users/jh/code/my/games/LD49/Components/Player/assets/head_back.png"
       inkscape:export-xdpi="100.0441"
       inkscape:export-ydpi="100.0441" />
    <path
       style="fill:#5f5f5f;fill-opacity:1;stroke:#0e0e0e;stroke-width:1px;stroke-linecap:butt;stroke-linejoin:miter;stroke-opacity:1"
       d="m 248.21487,519.69335 c -2.93621,7.22864 -9.34093,35.02533 -9.34093,35.02533 l -12.03673,14.93999 c 0,0 1.25346,1.98679 8.34462,4.59891 7.09116,2.61212 11.50334,-0.59776 11.50334,-0.59776 l 1.55909,-12.69903 c 0,0 13.31392,-14.40061 17.19647,-21.49914 3.88256,-7.09852 7.64993,-14.14921 6.737,-19.90592 -0.91293,-5.7567 -4.65163,-9.34615 -8.34492,-11.18728 -3.6933,-1.84113 -7.60174,-2.0716 -10.8037,0.0541 -3.20196,2.12566 -1.87802,4.04221 -4.81424,11.27084 z"
       id="path5384"
       sodipodi:nodetypes="zcczcczzzzzz"
       inkscape:transform-center-x="9.9913379"
       inkscape:transform-center-y="22.944101"
       inkscape:export-filename="/Users/jh/code/my/games/LD49/Components/Enemy/assets/leg_back_bottom_background.png"
       inkscape:export-xdpi="100.0441"
       inkscape:export-ydpi="100.0441" />
    <g
       id="g5400"
       transform="rotate(-14.991531,1448.5368,590.89645)"
       inkscape:transform-center-x="8.2633866"
       inkscape:transform-center-y="35.749138"
       style="fill:#333333"
       inkscape:export-filename="/Users/jh/code/my/games/LD49/Components/Enemy/assets/leg_front_bottom_background.png"
       inkscape:export-xdpi="100.0441"
       inkscape:export-ydpi="100.0441">
      <path
         style="fill:#333333;fill-opacity:1;stroke:#000000;stroke-width:1px;stroke-linecap:butt;stroke-linejoin:miter;stroke-opacity:1"
         d="m 158.35117,145.66558 c 3.32746,-5.12329 6.19752,-7.15147 10.93585,-8.31125 4.73833,-1.15978 11.23264,-0.27537 15.3102,2.6246 4.07756,2.89997 6.8135,6.067 6.99894,12.68559 0.18544,6.61859 -3.73971,12.06792 -10.93585,22.74658 -7.19614,10.67866 -34.99473,38.49421 -34.99473,38.49421 l 4.81177,13.12302 c 0,0 -14.66335,2.16348 -20.12197,0.87487 -5.45862,-1.28861 -11.81072,-6.56151 -11.81072,-6.56151 l 13.56046,-13.12303 c 0,0 17.02894,-29.57268 20.99684,-40.24394 3.9679,-10.67126 1.92175,-17.18585 5.24921,-22.30914 z"
         id="path5394"
         sodipodi:nodetypes="zzzzzcczcczz" />
      <path
         style="fill:#333333;stroke:#000000;stroke-width:1px;stroke-linecap:butt;stroke-linejoin:miter;stroke-opacity:1"
         d="m 132.10512,208.21866 c 0,0 2.50994,3.41277 4.33489,4.32929 2.77768,1.39499 9.22557,1.35736 9.22557,1.35736 l 4.81177,13.12302 c 0,0 -12.60138,2.80969 -18.72747,1.50869 -4.90341,-1.04134 -13.20522,-7.19533 -13.20522,-7.19533 z"
         id="path5396"
         sodipodi:nodetypes="caccacc" />
      <path
         style="fill:#333333;stroke:none;stroke-width:1px;stroke-linecap:butt;stroke-linejoin:miter;stroke-opacity:1"
         d="m 133.2422,211.6952 -11.72532,10.44619 9.80663,4.90331 5.32969,-13.21762 z"
         id="path5398" />
    </g>
    <path
       style="fill:#273137;fill-opacity:1;stroke:none;stroke-width:1px;stroke-linecap:butt;stroke-linejoin:miter;stroke-opacity:1"
       d="m 111.03852,347.23107 c -8.08382,10.16838 -17.149733,28.21386 -21.871703,38.05677 -4.72197,9.84291 -7.402251,14.15114 -7.873819,20.12197 -0.471568,5.97083 3.403895,9.36108 3.062039,13.99789 -0.341856,4.63681 -4.578103,8.39717 -4.811775,12.68559 -0.233672,4.28842 0.03719,8.60397 3.062039,11.81073 3.024847,3.20676 8.272456,4.14882 13.560456,4.37434 5.288003,0.22552 11.058683,-0.76584 17.059943,-3.93691 6.00126,-3.17107 9.03692,-13.80019 17.05993,-15.74763 8.02301,-1.94744 15.35937,5.25472 25.37118,6.99895 10.01181,1.74423 26.69857,3.42301 34.5573,2.6246 7.85873,-0.79841 8.47774,-0.22289 12.24815,-3.49947 3.77041,-3.27658 6.99895,-15.74763 6.99895,-15.74763 0,0 15.40297,-6.9955 24.93375,-7.43638 9.53078,-0.44088 21.8531,2.54113 30.62039,6.12408 8.76729,3.58295 12.29639,12.19484 21.43427,13.99789 9.13788,1.80305 21.78592,-1.33864 29.74553,-5.68664 7.95961,-4.348 13.5361,-9.05533 16.6225,-17.49737 3.0864,-8.44204 2.3587,-17.69544 -1.74974,-29.74552 -4.10844,-12.05009 -16.03651,-31.94824 -26.24605,-38.49421 -10.20954,-6.54597 -16.17073,-4.50345 -25.80862,-4.37434 -9.63789,0.1291 -18.2411,7.66337 -31.05782,6.12408 -12.81672,-1.5393 -27.74052,-14.62598 -41.55625,-19.24711 -13.81573,-4.62112 -28.53252,-9.44392 -40.68138,-8.74868 -12.14886,0.69524 -20.37624,4.47525 -29.74552,10.06099 -9.36928,5.58574 -16.84993,13.01562 -24.93375,23.18401 z"
       id="path5402"
       sodipodi:nodetypes="zzzzzzzzzzzzczzzzzzzzzzzzz"
       inkscape:export-filename="/Users/jh/code/my/games/LD49/Components/Enemy/assets/body.png"
       inkscape:export-xdpi="100.0441"
       inkscape:export-ydpi="100.0441" />
    <path
       style="opacity:0.368421;fill:url(#linearGradient5490);fill-opacity:1;stroke:none;stroke-width:1px;stroke-linecap:butt;stroke-linejoin:miter;stroke-opacity:1"
       d="m 209.46121,418.97027 c 3.42608,-8.15946 7.58957,-16.01934 10.59527,-24.34283 3.11644,-8.63014 5.82078,-17.44891 7.67475,-26.43525 1.15762,-5.61107 2.67119,-11.3512 2.13188,-17.055 -0.47809,-5.05631 -2.19161,-10.07497 -4.69013,-14.49675 -2.13106,-3.77147 -4.8906,-7.45326 -8.5275,-9.80663 -5.36023,-3.46851 -12.20881,-3.74202 -18.33413,-5.54287 -6.94871,-2.04293 -20.89237,-5.96925 -20.89237,-5.96925 0,0 12.92399,17.71305 14.92312,28.14075 4.68391,24.43181 -0.5379,50.49009 -8.10112,74.18925 -2.12784,6.66754 -10.233,18.33413 -10.233,18.33413 0,0 11.3099,2.75878 17.055,2.55825 3.92859,-0.13712 11.51212,-2.55825 11.51212,-2.55825 0,0 4.51727,-11.37399 6.88611,-17.01555 z"
       id="path5404"
       sodipodi:nodetypes="aaaaaaacaacaca"
       inkscape:export-filename="/Users/jh/code/my/games/LD49/Components/Enemy/assets/body.png"
       inkscape:export-xdpi="100.0441"
       inkscape:export-ydpi="100.0441" />
    <path
       style="opacity:0.518797;fill:#cccccc;stroke:none;stroke-width:1px;stroke-linecap:butt;stroke-linejoin:miter;stroke-opacity:1"
       d="m 148.37769,323.49381 8.44179,1.80896 11.15523,-2.11045 3.31642,-3.61791 -0.60299,-4.2209 -2.41194,-1.50746 h -8.74329 l -8.44179,2.71343 -4.82388,2.71344 z"
       id="path5406"
       inkscape:export-filename="/Users/jh/code/my/games/LD49/Components/Enemy/assets/body.png"
       inkscape:export-xdpi="100.0441"
       inkscape:export-ydpi="100.0441" />
    <ellipse
       style="opacity:0.511278;fill:url(#linearGradient5488);fill-opacity:1;stroke:none;stroke-width:2.26451;stroke-linecap:round;stroke-linejoin:round;stroke-miterlimit:4;stroke-dasharray:9.05804, 4.52902, 2.26451, 4.52902;stroke-dashoffset:0;stroke-opacity:1"
       id="ellipse5408"
       cx="168.46509"
       cy="368.1922"
       rx="46.474876"
       ry="42.637505"
       inkscape:export-filename="/Users/jh/code/my/games/LD49/Components/Enemy/assets/body.png"
       inkscape:export-xdpi="100.0441"
       inkscape:export-ydpi="100.0441" />
    <ellipse
       style="opacity:0.511278;fill:url(#linearGradient5486);fill-opacity:1;stroke:none;stroke-width:2.11227;stroke-linecap:round;stroke-linejoin:round;stroke-miterlimit:4;stroke-dasharray:8.44908, 4.22454, 2.11227, 4.22454;stroke-dashoffset:0;stroke-opacity:1"
       id="ellipse5412"
       cx="295.10852"
       cy="381.73895"
       rx="42.221169"
       ry="40.834763"
       inkscape:export-filename="/Users/jh/code/my/games/LD49/Components/Enemy/assets/body.png"
       inkscape:export-xdpi="100.0441"
       inkscape:export-ydpi="100.0441" />
    <path
       style="fill:#e6e6e6;stroke:none;stroke-width:1px;stroke-linecap:butt;stroke-linejoin:miter;stroke-opacity:1"
       d="m 98.352927,376.97659 c -0.56783,-4.42709 -4.26101,-8.62304 -8.31125,-10.49842 -7.811107,-3.61677 -17.276757,2.01587 -25.808611,0.87487 -8.319905,-1.11266 -15.796329,-5.95682 -24.058879,-7.43638 -3.049155,-0.54601 -9.279116,-0.50719 -9.279116,-0.50719 0,0 14.592314,11.84624 23.277009,14.94251 8.43295,3.00653 18.447126,-0.44741 26.683484,3.06204 5.049512,2.15156 7.344463,11.76297 12.685593,10.49842 3.87541,-0.91753 5.31843,-6.98567 4.81177,-10.93585 z"
       id="path5414"
       sodipodi:nodetypes="aaaacaaaa"
       inkscape:export-filename="/Users/jh/code/my/games/LD49/Components/Enemy/assets/body.png"
       inkscape:export-xdpi="100.0441"
       inkscape:export-ydpi="100.0441" />
    <path
       style="fill:#cccccc;stroke:none;stroke-width:1px;stroke-linecap:butt;stroke-linejoin:miter;stroke-opacity:1"
       d="m 88.165147,384.95395 c -2.925606,3.26125 3.42343,11.46338 0.43743,15.31019 -2.985991,3.84681 -6.425917,2.92104 -13.560453,3.06204 -7.134536,0.141 -18.854996,-2.78149 -28.43322,-5.24921 -9.578224,-2.46772 -28.870655,-9.62355 -28.870655,-9.62355 0,0 -0.249107,4.52003 3.936907,9.18612 4.186014,4.66609 14.974762,10.3796 24.058879,13.56046 9.084117,3.18086 21.103815,4.81809 29.745523,4.81177 8.641708,-0.006 16.370299,-0.45446 21.434269,-3.49947 5.063973,-3.04501 7.472353,-5.6227 8.311253,-10.93585 0.8389,-5.31315 -2.00255,-14.81386 -6.124083,-17.49737 -4.12153,-2.68351 -8.01024,-2.38638 -10.93585,0.87487 z"
       id="path5416"
       sodipodi:nodetypes="zzzzczzzzzzz"
       inkscape:export-filename="/Users/jh/code/my/games/LD49/Components/Enemy/assets/body.png"
       inkscape:export-xdpi="100.0441"
       inkscape:export-ydpi="100.0441" />
    <g
       id="g5495"
       inkscape:export-filename="/Users/jh/code/my/games/LD49/Components/Enemy/assets/leg_front_up_foreground.png"
       inkscape:export-xdpi="100.0441"
       inkscape:export-ydpi="100.0441">
      <path
         style="fill:#4d4d4d;stroke:#000000;stroke-width:1px;stroke-linecap:butt;stroke-linejoin:miter;stroke-opacity:1"
         d="m -25.759968,370.22451 c -3.36947,-3.64151 -9.8804,-10.79032 -16.6225,-12.68559 -6.7421,-1.89528 -14.2806,-1.38471 -20.99684,2.18717 -6.71624,3.57187 -13.23049,11.65048 -15.74763,18.80966 -2.51714,7.15919 -0.11182,13.32942 0.43743,20.99684 0.54925,7.66743 1.61812,16.31997 3.06204,24.93375 1.44392,8.61378 4.64652,20.01897 5.68665,26.68349 1.04013,6.66452 -0.97122,9.56976 1.3123,13.12302 2.28352,3.55326 6.02561,4.84796 10.49842,6.12408 4.47281,1.27612 9.32392,3.43568 15.74763,0.43743 6.42371,-2.99825 11.45025,-10.23053 16.6225,-20.99684 5.17225,-10.76631 9.79343,-31.44645 10.06098,-43.74341 0.26755,-12.29696 -2.92337,-22.58346 -5.24921,-28.43322 -2.32584,-5.84977 -1.4423,-3.79488 -4.81177,-7.43638 z"
         id="path5410"
         sodipodi:nodetypes="zzzzzzzzzzzzzz" />
      <ellipse
         style="opacity:0.93985;fill:#808080;fill-opacity:1;stroke:#323232;stroke-width:4.12868;stroke-linecap:round;stroke-linejoin:round;stroke-dasharray:24.772, 8.25735;stroke-opacity:1"
         id="ellipse5418"
         cx="-49.162693"
         cy="392.53366"
         rx="23.402727"
         ry="26.24605" />
      <ellipse
         style="opacity:0.93985;fill:#767676;fill-opacity:1;stroke:#000000;stroke-width:1.869;stroke-linecap:round;stroke-linejoin:round;stroke-miterlimit:4;stroke-dasharray:7.476, 3.738, 1.869, 3.738;stroke-dashoffset:0;stroke-opacity:1"
         id="ellipse5420"
         cx="-49.600147"
         cy="391.44006"
         rx="10.717137"
         ry="10.279703" />
    </g>
    <g
       id="g5502"
       inkscape:export-filename="/Users/jh/code/my/games/LD49/Components/Enemy/assets/leg_front_bottom_foreground.png"
       inkscape:export-xdpi="100.0441"
       inkscape:export-ydpi="100.0441">
      <g
         id="g5428"
         transform="translate(-168.34481,345.72276)">
        <path
           style="fill:#5f5f5f;fill-opacity:1;stroke:#000000;stroke-width:1px;stroke-linecap:butt;stroke-linejoin:miter;stroke-opacity:1"
           d="m 158.35117,145.66558 c 3.32746,-5.12329 6.19752,-7.15147 10.93585,-8.31125 4.73833,-1.15978 11.23264,-0.27537 15.3102,2.6246 4.07756,2.89997 6.8135,6.067 6.99894,12.68559 0.18544,6.61859 -3.73971,12.06792 -10.93585,22.74658 -7.19614,10.67866 -34.99473,38.49421 -34.99473,38.49421 l 4.81177,13.12302 c 0,0 -14.66335,2.16348 -20.12197,0.87487 -5.45862,-1.28861 -11.81072,-6.56151 -11.81072,-6.56151 l 13.56046,-13.12303 c 0,0 17.02894,-29.57268 20.99684,-40.24394 3.9679,-10.67126 1.92175,-17.18585 5.24921,-22.30914 z"
           id="path5422"
           sodipodi:nodetypes="zzzzzcczcczz" />
        <path
           style="fill:#b3b3b3;stroke:#000000;stroke-width:1px;stroke-linecap:butt;stroke-linejoin:miter;stroke-opacity:1"
           d="m 132.10512,208.21866 c 0,0 2.50994,3.41277 4.33489,4.32929 2.77768,1.39499 9.22557,1.35736 9.22557,1.35736 l 4.81177,13.12302 c 0,0 -12.60138,2.80969 -18.72747,1.50869 -4.90341,-1.04134 -13.20522,-7.19533 -13.20522,-7.19533 z"
           id="path5424"
           sodipodi:nodetypes="caccacc" />
        <path
           style="fill:#ffffff;stroke:none;stroke-width:1px;stroke-linecap:butt;stroke-linejoin:miter;stroke-opacity:1"
           d="m 133.2422,211.6952 -11.72532,10.44619 9.80663,4.90331 5.32969,-13.21762 z"
           id="path5426" />
      </g>
      <ellipse
         style="opacity:0.93985;fill:#767676;fill-opacity:1;stroke:#000000;stroke-width:1.34883;stroke-linecap:round;stroke-linejoin:round;stroke-miterlimit:4;stroke-dasharray:5.39533, 2.69767, 1.34883, 2.69767;stroke-dashoffset:0;stroke-opacity:1"
         id="ellipse5430"
         cx="8.1627665"
         cy="496.20569"
         rx="7.9120007"
         ry="7.2522154" />
    </g>
    <path
       style="fill:#ffffff;stroke:none;stroke-width:1px;stroke-linecap:butt;stroke-linejoin:miter;stroke-opacity:1;filter:url(#filter4993)"
       d="m 21.915783,391.56645 c 0,0 14.4719,6.52833 23.373352,9.20768 8.901452,2.67935 19.054627,4.56128 26.478172,4.70511 7.423545,0.14383 6.631981,2.07621 9.68682,0.14322 3.05484,-1.93299 7.99162,-4.03733 7.99162,-4.03733 0.47915,-3.20262 1.36969,-10.98717 1.64571,-13.324 0.27602,-2.33683 0.70828,-2.83314 1.65266,-3.30533 0.94438,-0.47219 1.20735,-0.95583 2.59704,0.47219 1.38969,1.42802 1.62196,5.94268 1.41657,9.20769 -0.20539,3.26501 -0.40534,7.31076 -2.83313,9.91596 -2.42779,2.6052 -5.63401,2.90767 -10.38816,3.77752 -4.754145,0.86985 -11.693753,1.06429 -17.943179,0.23609 -6.249426,-0.8282 -12.984981,-3.53657 -19.123651,-5.43017 -6.13867,-1.8936 -13.691685,-3.6745 -17.707084,-5.90236 -4.015399,-2.22786 -6.84674,-5.66627 -6.84674,-5.66627 z"
       id="path5432"
       sodipodi:nodetypes="czzzszzzzzzzzzc"
       inkscape:export-filename="/Users/jh/code/my/games/LD49/Components/Enemy/assets/body.png"
       inkscape:export-xdpi="100.0441"
       inkscape:export-ydpi="100.0441" />
    <path
       style="fill:#999999;stroke:none;stroke-width:1px;stroke-linecap:butt;stroke-linejoin:miter;stroke-opacity:1;filter:url(#filter4993)"
       d="m 23.084391,399.07893 c 0,0 20.648828,7.52999 29.55028,10.20934 8.901452,2.67935 19.054627,4.56128 26.478172,4.70511 9.967654,1.90551 7.577908,-0.49122 16.175944,-2.39161 0.47915,-3.20262 6.044133,-5.14413 6.320153,-7.48096 -0.41798,-2.56606 -2.489003,-19.63895 0.24304,-17.35727 1.38969,1.42802 3.95918,10.45017 3.75379,13.71518 -0.20539,3.26501 -1.90784,9.98186 -4.33563,12.58706 -2.427793,2.6052 -5.634013,2.90767 -10.388163,3.77752 -4.754149,0.86985 -11.693757,1.06429 -17.943183,0.23609 -6.249426,-0.8282 -12.984981,-2.03407 -19.123651,-3.92767 -6.13867,-1.8936 -13.691685,-4.00839 -17.707084,-6.23625 -4.015399,-2.22786 -13.023668,-7.83654 -13.023668,-7.83654 z"
       id="path5434"
       sodipodi:nodetypes="czcccczzzzzzc"
       inkscape:export-filename="/Users/jh/code/my/games/LD49/Components/Enemy/assets/body.png"
       inkscape:export-xdpi="100.0441"
       inkscape:export-ydpi="100.0441" />
    <path
       style="fill:#ffffff;stroke:none;stroke-width:1px;stroke-linecap:butt;stroke-linejoin:miter;stroke-opacity:1;filter:url(#filter5115)"
       d="m 94.275847,381.83619 c 0.87553,-1.94658 0.0553,-3.62094 -1.49232,-5.75606 -1.54766,-2.13512 -4.73172,-4.24695 -8.314309,-5.32969 -3.582589,-1.08274 -8.12254,0.1936 -12.578063,-0.21319 -4.455523,-0.40679 -9.561851,-1.01424 -14.070376,-2.34506 -4.508525,-1.33082 -9.002518,-4.19342 -12.791251,-5.54288 -3.788733,-1.34945 -7.427019,-2.30979 -9.806625,-2.77143 -2.379606,-0.46164 -4.327832,-0.46841 -4.327832,-0.46841 0,0 7.372445,3.23338 11.149832,4.94534 3.777387,1.71197 7.340261,3.88363 11.512126,5.32969 4.171865,1.44606 8.682699,2.57149 13.430813,3.19782 4.748114,0.62632 11.484982,-1.25149 14.923126,0.42637 3.438144,1.67786 4.133623,4.13902 5.116501,6.18244 0.982878,2.04342 -0.732106,4.56688 1.137678,5.46282 1.86978,0.89594 5.23517,-1.17118 6.1107,-3.11776 z"
       id="path5436"
       sodipodi:nodetypes="zzzzzzzczzzzzzz"
       inkscape:export-filename="/Users/jh/code/my/games/LD49/Components/Enemy/assets/body.png"
       inkscape:export-xdpi="100.0441"
       inkscape:export-ydpi="100.0441" />
    <path
       style="fill:#000000;stroke:none;stroke-width:1px;stroke-linecap:butt;stroke-linejoin:miter;stroke-opacity:1"
       d="m 165.26127,317.76545 c -3.63139,6.38403 -14.62741,2.86864 -21.10448,6.33135 -7.93202,4.24054 -15.28526,10.08201 -20.803,17.18508 -4.77114,6.14196 -7.09729,13.8689 -9.94925,21.10449 -2.05119,5.204 -2.53337,11.02224 -5.12538,15.97911 -1.63347,3.12378 -6.42718,8.39806 -6.42718,8.39806 0,0 -3.547943,0.4892 -5.331033,0.64672 -1.80472,0.15943 -3.84199,-0.57634 -5.42687,0.30149 -1.82936,1.01324 -3.617915,5.12538 -3.617915,5.12538 l -2.411941,-9.94926 c 0,0 1.931602,-3.73015 3.617916,-4.82388 1.90225,-1.23379 4.3676,-1.40992 6.63283,-1.50747 1.02134,-0.044 3.03796,0.42007 3.03796,0.42007 0,0 4.535183,-5.07413 6.308323,-7.95738 3.01506,-4.90272 4.49471,-10.61664 7.23582,-15.67762 2.88167,-5.32049 5.68103,-10.80704 9.64777,-15.37613 3.88045,-4.46969 8.57736,-8.27272 13.56717,-11.45672 5.23068,-3.3377 11.04521,-5.73795 16.88359,-7.83881 4.10555,-1.47733 8.90875,-5.54037 12.66269,-3.31642 0.713,0.4224 1.01273,1.6916 0.60298,2.41194 z"
       id="path5438"
       sodipodi:nodetypes="aaaaacaaccaacaaaaaaa"
       inkscape:export-filename="/Users/jh/code/my/games/LD49/Components/Enemy/assets/body.png"
       inkscape:export-xdpi="100.0441"
       inkscape:export-ydpi="100.0441" />
    <g
       id="g5446"
       transform="translate(-0.62694916,340.80444)"
       inkscape:export-filename="/Users/jh/code/my/games/LD49/Components/Enemy/assets/leg_back_bottom_foreground.png"
       inkscape:export-xdpi="100.0441"
       inkscape:export-ydpi="100.0441">
      <path
         style="fill:#5f5f5f;fill-opacity:1;stroke:#0e0e0e;stroke-width:1px;stroke-linecap:butt;stroke-linejoin:miter;stroke-opacity:1"
         d="m 330.70023,167.09985 c -0.13926,7.80097 0,34.5573 0,34.5573 l -10.93586,20.55941 c 0,0 4.03831,3.55345 8.31125,4.37434 4.27294,0.82089 16.6225,-1.74974 16.6225,-1.74974 l 0.87487,-19.2471 c 0,0 7.2422,-18.22605 8.31125,-26.24605 1.06905,-8.02 2.04783,-15.95393 -0.87487,-20.99684 -2.9227,-5.04291 -7.70235,-7.04711 -11.81072,-7.43638 -4.10837,-0.38927 -7.83806,0.80169 -10.06099,3.9369 -2.22293,3.13521 -0.29817,4.44719 -0.43743,12.24816 z"
         id="path5440"
         sodipodi:nodetypes="zcczcczzzzz" />
      <path
         style="fill:#b3b3b3;fill-opacity:1;stroke:#000000;stroke-width:1px;stroke-linecap:butt;stroke-linejoin:miter;stroke-opacity:1"
         d="m 330.70023,201.65715 -10.93586,20.55941 c 0,0 5.33031,4.52992 9.68628,5.24655 4.35597,0.71663 15.24747,-2.62195 15.24747,-2.62195 l 0.87487,-19.2471 c 0,0 -7.29571,1.79709 -9.94128,0.85344 -2.64557,-0.94365 -4.93148,-4.79035 -4.93148,-4.79035 z"
         id="path5442"
         sodipodi:nodetypes="cczcczc" />
      <path
         style="fill:#ffffff;stroke:none;stroke-width:1px;stroke-linecap:butt;stroke-linejoin:miter;stroke-opacity:1"
         d="m 332.54118,205.52034 -9.58065,18.54319 7.72633,3.39958 6.18106,-1.54526 0.30906,-18.54319 z"
         id="path5444" />
    </g>
    <path
       style="fill:#cccccc;stroke:#000000;stroke-width:1px;stroke-linecap:butt;stroke-linejoin:miter;stroke-opacity:1"
       d="m 238.87394,554.71868 c 0,0 1.80753,3.7049 3.44111,4.80696 1.68574,1.13724 5.92921,1.43515 5.92921,1.43515 l -1.55909,12.69903 c 0,0 -4.23084,2.27753 -6.5335,2.24563 -3.5204,-0.0488 -6.79707,-2.02601 -9.8897,-3.70863 -1.24815,-0.67908 -3.42476,-2.53815 -3.42476,-2.53815 z"
       id="path5448"
       sodipodi:nodetypes="caccaacc"
       inkscape:export-filename="/Users/jh/code/my/games/LD49/Components/Enemy/assets/leg_back_bottom_background.png"
       inkscape:export-xdpi="100.0441"
       inkscape:export-ydpi="100.0441" />
    <path
       style="fill:#cccccc;fill-opacity:1;stroke:#000000;stroke-width:0.999528px;stroke-linecap:butt;stroke-linejoin:miter;stroke-opacity:1"
       d="m 77.93519,561.77309 c 0,0 3.18283,3.73699 5.83853,4.24105 2.6557,0.50406 8.71763,-2.25572 8.71763,-2.25572 l 8.03501,11.43167 c 0,0 -11.2328,7.0191 -16.96981,7.35781 -5.73702,0.33871 -15.31649,-4.59067 -15.31649,-4.59067 z"
       id="path5450"
       sodipodi:nodetypes="czcczcc"
       inkscape:export-filename="/Users/jh/code/my/games/LD49/Components/Enemy/assets/leg_front_bottom_background.png"
       inkscape:export-xdpi="100.0441"
       inkscape:export-ydpi="100.0441" />
    <path
       style="fill:#333333;stroke:none;stroke-width:1px;stroke-linecap:butt;stroke-linejoin:miter;stroke-opacity:1"
       d="m 330.11297,383.24213 c 6.07775,-1.39975 0.56541,-16.00997 -0.6181,-24.72425 -1.18351,-8.71428 -3.9539,-21.84814 -6.79917,-27.19667 -2.84527,-5.34853 -3.51822,-6.24046 -5.56296,-6.18107 -2.04474,0.0594 -1.79686,-1.76991 -2.47243,3.09053 -0.67557,4.86044 8.33417,16.07196 9.88971,23.48804 1.55554,7.41609 -0.89599,14.66545 0.29944,19.9774 1.19543,5.31195 -0.81424,12.94577 5.26351,11.54602 z"
       id="path5478"
       sodipodi:nodetypes="zzzzzzzz"
       inkscape:export-filename="/Users/jh/code/my/games/LD49/Components/Enemy/assets/body.png"
       inkscape:export-xdpi="100.0441"
       inkscape:export-ydpi="100.0441" />
    <g
       id="g5519"
       inkscape:export-filename="/Users/jh/code/my/games/LD49/Components/Enemy/assets/leg_back_up_foreground.png"
       inkscape:export-xdpi="100.0441"
       inkscape:export-ydpi="100.0441">
      <g
         id="g5476"
         transform="translate(119.26741,284.96323)">
        <g
           id="g5458">
          <path
             style="fill:#4d4d4d;fill-opacity:1;stroke:#000000;stroke-width:1px;stroke-linecap:butt;stroke-linejoin:miter;stroke-opacity:1"
             d="m 321.95154,66.052559 c -7.11017,-3.735129 -16.2742,-3.288299 -24.05887,-1.312303 -6.47191,1.642774 -13.30681,4.975899 -17.05994,10.49842 -4.24448,6.245503 -3.83956,14.758486 -3.9369,22.309143 -0.076,5.897221 0.57669,11.966641 2.6246,17.497371 3.04841,8.23275 8.19126,15.72476 13.99789,22.30914 6.85355,7.77153 15.93644,13.25073 24.05888,19.68453 4.32073,3.42246 8.02331,7.96938 13.12303,10.06099 4.35057,1.78435 9.43621,2.89101 13.99789,1.74974 2.94342,-0.7364 6.11307,-2.51886 7.43638,-5.24921 3.5664,-7.35844 0.31588,-16.48291 -1.3123,-24.49632 -1.79089,-8.81423 -6.89547,-16.67343 -9.18612,-25.37118 -2.44809,-9.29554 -0.95577,-19.628027 -4.81177,-28.433218 -3.25246,-7.427007 -7.69496,-15.476439 -14.87277,-19.247103 z"
             id="path5452"
             sodipodi:nodetypes="aaaaaaaaaaaaaa" />
          <ellipse
             style="opacity:0.93985;fill:#808080;fill-opacity:1;stroke:#323232;stroke-width:4.12868;stroke-linecap:round;stroke-linejoin:round;stroke-dasharray:24.772, 8.25735;stroke-opacity:1"
             id="ellipse5454"
             cx="307.29752"
             cy="96.672951"
             rx="23.402727"
             ry="26.24605" />
          <ellipse
             style="opacity:0.93985;fill:#767676;fill-opacity:1;stroke:#000000;stroke-width:1.869;stroke-linecap:round;stroke-linejoin:round;stroke-miterlimit:4;stroke-dasharray:7.476, 3.738, 1.869, 3.738;stroke-dashoffset:0;stroke-opacity:1"
             id="ellipse5456"
             cx="306.86005"
             cy="95.579361"
             rx="10.717137"
             ry="10.279703" />
        </g>
        <ellipse
           style="opacity:1;fill:#333333;fill-opacity:1;stroke:none;stroke-width:2.70354;stroke-linecap:round;stroke-linejoin:round;stroke-miterlimit:4;stroke-dasharray:10.8142, 5.40708, 2.70354, 5.40708;stroke-dashoffset:0;stroke-opacity:1"
           id="ellipse5460"
           cx="305.61917"
           cy="78.999886"
           rx="4.479938"
           ry="4.042871" />
        <ellipse
           style="opacity:1;fill:#333333;fill-opacity:1;stroke:none;stroke-width:2.70354;stroke-linecap:round;stroke-linejoin:round;stroke-miterlimit:4;stroke-dasharray:10.8142, 5.40708, 2.70354, 5.40708;stroke-dashoffset:0;stroke-opacity:1"
           id="ellipse5462"
           cx="308.24158"
           cy="112.21699"
           rx="4.479938"
           ry="4.042871" />
        <ellipse
           style="opacity:1;fill:#333333;fill-opacity:1;stroke:none;stroke-width:2.70354;stroke-linecap:round;stroke-linejoin:round;stroke-miterlimit:4;stroke-dasharray:10.8142, 5.40708, 2.70354, 5.40708;stroke-dashoffset:0;stroke-opacity:1"
           id="ellipse5464"
           cx="323.10187"
           cy="93.204567"
           rx="4.479938"
           ry="4.042871" />
        <ellipse
           style="opacity:1;fill:#333333;fill-opacity:1;stroke:none;stroke-width:2.70354;stroke-linecap:round;stroke-linejoin:round;stroke-miterlimit:4;stroke-dasharray:10.8142, 5.40708, 2.70354, 5.40708;stroke-dashoffset:0;stroke-opacity:1"
           id="ellipse5466"
           cx="290.75891"
           cy="98.012306"
           rx="4.479938"
           ry="4.042871" />
        <ellipse
           style="opacity:1;fill:#333333;fill-opacity:1;stroke:none;stroke-width:2.70354;stroke-linecap:round;stroke-linejoin:round;stroke-miterlimit:4;stroke-dasharray:10.8142, 5.40708, 2.70354, 5.40708;stroke-dashoffset:0;stroke-opacity:1"
           id="ellipse5468"
           cx="294.25546"
           cy="85.337357"
           rx="4.479938"
           ry="4.042871" />
        <ellipse
           style="opacity:1;fill:#333333;fill-opacity:1;stroke:none;stroke-width:2.70354;stroke-linecap:round;stroke-linejoin:round;stroke-miterlimit:4;stroke-dasharray:10.8142, 5.40708, 2.70354, 5.40708;stroke-dashoffset:0;stroke-opacity:1"
           id="ellipse5470"
           cx="317.42001"
           cy="82.059357"
           rx="4.479938"
           ry="4.042871" />
        <ellipse
           style="opacity:1;fill:#333333;fill-opacity:1;stroke:none;stroke-width:2.70354;stroke-linecap:round;stroke-linejoin:round;stroke-miterlimit:4;stroke-dasharray:10.8142, 5.40708, 2.70354, 5.40708;stroke-dashoffset:0;stroke-opacity:1"
           id="ellipse5472"
           cx="319.60535"
           cy="106.53512"
           rx="4.479938"
           ry="4.042871" />
        <ellipse
           style="opacity:1;fill:#333333;fill-opacity:1;stroke:none;stroke-width:2.70354;stroke-linecap:round;stroke-linejoin:round;stroke-miterlimit:4;stroke-dasharray:10.8142, 5.40708, 2.70354, 5.40708;stroke-dashoffset:0;stroke-opacity:1"
           id="ellipse5474"
           cx="296.65933"
           cy="108.06485"
           rx="4.479938"
           ry="4.042871" />
      </g>
      <ellipse
         style="opacity:0.93985;fill:#767676;fill-opacity:1;stroke:#000000;stroke-width:1.34883;stroke-linecap:round;stroke-linejoin:round;stroke-miterlimit:4;stroke-dasharray:5.39533, 2.69767, 1.34883, 2.69767;stroke-dashoffset:0;stroke-opacity:1"
         id="ellipse5480"
         cx="459.57315"
         cy="441.00912"
         rx="7.9120007"
         ry="7.2522154" />
      <ellipse
         style="opacity:0.93985;fill:#767676;fill-opacity:1;stroke:#000000;stroke-width:1.34883;stroke-linecap:round;stroke-linejoin:round;stroke-miterlimit:4;stroke-dasharray:5.39533, 2.69767, 1.34883, 2.69767;stroke-dashoffset:0;stroke-opacity:1"
         id="ellipse5482"
         cx="459.57315"
         cy="441.00912"
         rx="7.9120007"
         ry="7.2522154" />
    </g>
    <g
       id="g5526"
       inkscape:export-filename="/Users/jh/code/my/games/LD49/Components/Enemy/assets/leg_back_up_background.png"
       inkscape:export-xdpi="100.0441"
       inkscape:export-ydpi="100.0441">
      <g
         id="g5392"
         transform="rotate(49.384297,-84.193092,471.35348)"
         inkscape:transform-center-x="3.634086"
         inkscape:transform-center-y="24.049783">
        <path
           style="fill:#4d4d4d;fill-opacity:1;stroke:#000000;stroke-width:1px;stroke-linecap:butt;stroke-linejoin:miter;stroke-opacity:1"
           d="m 321.95154,66.052559 c -7.11017,-3.735129 -16.2742,-3.288299 -24.05887,-1.312303 -6.47191,1.642774 -13.30681,4.975899 -17.05994,10.49842 -4.24448,6.245503 -3.83956,14.758486 -3.9369,22.309143 -0.076,5.897221 0.57669,11.966641 2.6246,17.497371 3.04841,8.23275 8.19126,15.72476 13.99789,22.30914 6.85355,7.77153 15.93644,13.25073 24.05888,19.68453 4.32073,3.42246 8.02331,7.96938 13.12303,10.06099 4.35057,1.78435 9.43621,2.89101 13.99789,1.74974 2.94342,-0.7364 6.11307,-2.51886 7.43638,-5.24921 3.5664,-7.35844 0.31588,-16.48291 -1.3123,-24.49632 -1.79089,-8.81423 -6.89547,-16.67343 -9.18612,-25.37118 -2.44809,-9.29554 -0.95577,-19.628027 -4.81177,-28.433218 -3.25246,-7.427007 -7.69496,-15.476439 -14.87277,-19.247103 z"
           id="path5386"
           sodipodi:nodetypes="aaaaaaaaaaaaaa" />
        <ellipse
           style="opacity:0.93985;fill:#808080;fill-opacity:1;stroke:#323232;stroke-width:4.12868;stroke-linecap:round;stroke-linejoin:round;stroke-dasharray:24.772, 8.25735;stroke-opacity:1"
           id="ellipse5388"
           cx="307.29752"
           cy="96.672951"
           rx="23.402727"
           ry="26.24605" />
        <ellipse
           style="opacity:0.93985;fill:#767676;fill-opacity:1;stroke:#000000;stroke-width:1.869;stroke-linecap:round;stroke-linejoin:round;stroke-miterlimit:4;stroke-dasharray:7.476, 3.738, 1.869, 3.738;stroke-dashoffset:0;stroke-opacity:1"
           id="ellipse5390"
           cx="306.86005"
           cy="95.579361"
           rx="10.717137"
           ry="10.279703" />
      </g>
      <ellipse
         style="opacity:0.93985;fill:#767676;fill-opacity:1;stroke:#000000;stroke-width:1.34883;stroke-linecap:round;stroke-linejoin:round;stroke-miterlimit:4;stroke-dasharray:5.39533, 2.69767, 1.34883, 2.69767;stroke-dashoffset:0;stroke-opacity:1"
         id="ellipse5484"
         cx="431.66113"
         cy="590.68719"
         rx="7.9120007"
         ry="7.2522154" />
    </g>
  </g>
</svg>
